<mxfile host="app.diagrams.net" agent="Mozilla/5.0 (Windows NT 10.0; Win64; x64) AppleWebKit/537.36 (KHTML, like Gecko) Chrome/129.0.0.0 Safari/537.36 Edg/129.0.0.0" version="24.7.17">
  <diagram name="PÃ¡gina-1" id="vTFCYsg4mWc_LnblgySD">
    <mxGraphModel dx="1042" dy="629" grid="1" gridSize="10" guides="1" tooltips="1" connect="1" arrows="1" fold="1" page="1" pageScale="1" pageWidth="827" pageHeight="1169" math="0" shadow="0">
      <root>
        <mxCell id="0" />
        <mxCell id="1" parent="0" />
        <mxCell id="EkaF7T6iF1nRBm9k87Rm-5" style="edgeStyle=orthogonalEdgeStyle;rounded=0;orthogonalLoop=1;jettySize=auto;html=1;exitX=0.5;exitY=1;exitDx=0;exitDy=0;entryX=0.5;entryY=0;entryDx=0;entryDy=0;" parent="1" source="EkaF7T6iF1nRBm9k87Rm-1" target="EkaF7T6iF1nRBm9k87Rm-3" edge="1">
          <mxGeometry relative="1" as="geometry" />
        </mxCell>
        <mxCell id="EkaF7T6iF1nRBm9k87Rm-1" value="INICIO" style="ellipse;whiteSpace=wrap;html=1;" parent="1" vertex="1">
          <mxGeometry x="354" y="20" width="120" height="80" as="geometry" />
        </mxCell>
        <mxCell id="EkaF7T6iF1nRBm9k87Rm-2" value="FIN" style="ellipse;whiteSpace=wrap;html=1;" parent="1" vertex="1">
          <mxGeometry x="354" y="1010" width="120" height="80" as="geometry" />
        </mxCell>
        <mxCell id="EkaF7T6iF1nRBm9k87Rm-7" style="edgeStyle=orthogonalEdgeStyle;rounded=0;orthogonalLoop=1;jettySize=auto;html=1;exitX=0.5;exitY=1;exitDx=0;exitDy=0;entryX=0.5;entryY=0;entryDx=0;entryDy=0;" parent="1" source="EkaF7T6iF1nRBm9k87Rm-3" target="EkaF7T6iF1nRBm9k87Rm-6" edge="1">
          <mxGeometry relative="1" as="geometry" />
        </mxCell>
        <mxCell id="EkaF7T6iF1nRBm9k87Rm-3" value="ELEMENTO 1: BASE DE DATOS DONDE SE ALMACENA TODO LO QUE SE NECESITA PARA LA RESERVA.&lt;div&gt;&lt;br&gt;&lt;/div&gt;&lt;div&gt;RESTAURANTE, TELEFONO DEL RESTAURANTE, CIUDAD EN LA QUE SE ENCUENTRA Y EN QUE IDIOMA SE HABLA....&lt;/div&gt;" style="rounded=0;whiteSpace=wrap;html=1;" parent="1" vertex="1">
          <mxGeometry x="286" y="140" width="256" height="130" as="geometry" />
        </mxCell>
        <mxCell id="EkaF7T6iF1nRBm9k87Rm-10" style="edgeStyle=orthogonalEdgeStyle;rounded=0;orthogonalLoop=1;jettySize=auto;html=1;exitX=0.5;exitY=1;exitDx=0;exitDy=0;entryX=0.5;entryY=0;entryDx=0;entryDy=0;" parent="1" source="EkaF7T6iF1nRBm9k87Rm-6" target="EkaF7T6iF1nRBm9k87Rm-9" edge="1">
          <mxGeometry relative="1" as="geometry" />
        </mxCell>
        <mxCell id="EkaF7T6iF1nRBm9k87Rm-6" value="ELEMENTO 2: EN FUNCION DE LO QUE LE DE EL USUARIO PREGUNTA AL RESTAURANTE Y COMPRUEBA SI TODO ESTA CORRECTO" style="rounded=0;whiteSpace=wrap;html=1;" parent="1" vertex="1">
          <mxGeometry x="286" y="330" width="256" height="130" as="geometry" />
        </mxCell>
        <mxCell id="EkaF7T6iF1nRBm9k87Rm-12" style="edgeStyle=orthogonalEdgeStyle;rounded=0;orthogonalLoop=1;jettySize=auto;html=1;exitX=0;exitY=0.5;exitDx=0;exitDy=0;" parent="1" source="EkaF7T6iF1nRBm9k87Rm-9" target="EkaF7T6iF1nRBm9k87Rm-11" edge="1">
          <mxGeometry relative="1" as="geometry" />
        </mxCell>
        <mxCell id="EkaF7T6iF1nRBm9k87Rm-15" style="edgeStyle=orthogonalEdgeStyle;rounded=0;orthogonalLoop=1;jettySize=auto;html=1;exitX=1;exitY=0.5;exitDx=0;exitDy=0;entryX=0.5;entryY=0;entryDx=0;entryDy=0;" parent="1" source="EkaF7T6iF1nRBm9k87Rm-9" target="EkaF7T6iF1nRBm9k87Rm-14" edge="1">
          <mxGeometry relative="1" as="geometry" />
        </mxCell>
        <mxCell id="EkaF7T6iF1nRBm9k87Rm-9" value="COMPRUEBA SI LA HORA ESTA DISPONIBLE" style="rhombus;whiteSpace=wrap;html=1;" parent="1" vertex="1">
          <mxGeometry x="326" y="520" width="176" height="150" as="geometry" />
        </mxCell>
        <mxCell id="EkaF7T6iF1nRBm9k87Rm-19" style="edgeStyle=orthogonalEdgeStyle;rounded=0;orthogonalLoop=1;jettySize=auto;html=1;exitX=0.5;exitY=1;exitDx=0;exitDy=0;entryX=0.5;entryY=0;entryDx=0;entryDy=0;" parent="1" source="EkaF7T6iF1nRBm9k87Rm-11" target="EkaF7T6iF1nRBm9k87Rm-18" edge="1">
          <mxGeometry relative="1" as="geometry" />
        </mxCell>
        <mxCell id="EkaF7T6iF1nRBm9k87Rm-11" value="RESERVA&lt;span style=&quot;color: rgba(0, 0, 0, 0); font-family: monospace; font-size: 0px; text-align: start; text-wrap: nowrap;&quot;&gt;%3CmxGraphModel%3E%3Croot%3E%3CmxCell%20id%3D%220%22%2F%3E%3CmxCell%20id%3D%221%22%20parent%3D%220%22%2F%3E%3CmxCell%20id%3D%222%22%20value%3D%22ELEMENTO%20EN%20FUNCION%20DE%20LO%20QUE%20LE%20DE%20EL%20USUARIO%20PREGUNTA%20AL%20RESTAURANTE%20Y%20COMPRUEBA%20SI%20TODO%20ESTA%20CORRECTO%20Y%20SI%20SE%20PUEDE%20A%20ESA%20HORA%20Y%20ESE%20DIA%22%20style%3D%22rounded%3D0%3BwhiteSpace%3Dwrap%3Bhtml%3D1%3B%22%20vertex%3D%221%22%20parent%3D%221%22%3E%3CmxGeometry%20x%3D%22286%22%20y%3D%22330%22%20width%3D%22256%22%20height%3D%22130%22%20as%3D%22geometry%22%2F%3E%3C%2FmxCell%3E%3C%2Froot%3E%3C%2FmxGraphModel%3E&lt;/span&gt;" style="rounded=0;whiteSpace=wrap;html=1;" parent="1" vertex="1">
          <mxGeometry x="140" y="700" width="120" height="60" as="geometry" />
        </mxCell>
        <mxCell id="EkaF7T6iF1nRBm9k87Rm-13" value="SI" style="text;html=1;align=center;verticalAlign=middle;whiteSpace=wrap;rounded=0;" parent="1" vertex="1">
          <mxGeometry x="226" y="570" width="60" height="30" as="geometry" />
        </mxCell>
        <mxCell id="EkaF7T6iF1nRBm9k87Rm-17" style="edgeStyle=orthogonalEdgeStyle;rounded=0;orthogonalLoop=1;jettySize=auto;html=1;exitX=0;exitY=0.5;exitDx=0;exitDy=0;entryX=0.5;entryY=1;entryDx=0;entryDy=0;" parent="1" source="EkaF7T6iF1nRBm9k87Rm-14" target="EkaF7T6iF1nRBm9k87Rm-9" edge="1">
          <mxGeometry relative="1" as="geometry" />
        </mxCell>
        <mxCell id="EkaF7T6iF1nRBm9k87Rm-14" value="BUSCA OTRA HORA CERCANA" style="rounded=0;whiteSpace=wrap;html=1;" parent="1" vertex="1">
          <mxGeometry x="540" y="700" width="140" height="60" as="geometry" />
        </mxCell>
        <mxCell id="EkaF7T6iF1nRBm9k87Rm-16" value="NO" style="text;html=1;align=center;verticalAlign=middle;whiteSpace=wrap;rounded=0;" parent="1" vertex="1">
          <mxGeometry x="530" y="570" width="60" height="30" as="geometry" />
        </mxCell>
        <mxCell id="EkaF7T6iF1nRBm9k87Rm-20" style="edgeStyle=orthogonalEdgeStyle;rounded=0;orthogonalLoop=1;jettySize=auto;html=1;exitX=0.5;exitY=1;exitDx=0;exitDy=0;entryX=0.5;entryY=0;entryDx=0;entryDy=0;" parent="1" source="EkaF7T6iF1nRBm9k87Rm-18" target="EkaF7T6iF1nRBm9k87Rm-2" edge="1">
          <mxGeometry relative="1" as="geometry" />
        </mxCell>
        <mxCell id="EkaF7T6iF1nRBm9k87Rm-18" value="AVISA AL USUARIO DE LA HORA DE LA RESERVA Y SI ESTA DE ACUERDO" style="rounded=0;whiteSpace=wrap;html=1;" parent="1" vertex="1">
          <mxGeometry x="354" y="830" width="120" height="60" as="geometry" />
        </mxCell>
      </root>
    </mxGraphModel>
  </diagram>
</mxfile>
